<?xml version="1.0" encoding="UTF-8" standalone="no"?>
<!-- Created with Inkscape (http://www.inkscape.org/) -->

<svg
   xmlns:dc="http://purl.org/dc/elements/1.1/"
   xmlns:cc="http://creativecommons.org/ns#"
   xmlns:rdf="http://www.w3.org/1999/02/22-rdf-syntax-ns#"
   xmlns:svg="http://www.w3.org/2000/svg"
   xmlns="http://www.w3.org/2000/svg"
   xmlns:xlink="http://www.w3.org/1999/xlink"
   xmlns:sodipodi="http://sodipodi.sourceforge.net/DTD/sodipodi-0.dtd"
   xmlns:inkscape="http://www.inkscape.org/namespaces/inkscape"
   width="32"
   height="32"
   id="svg2"
   inkscape:label="Pozadí"
   version="1.1"
   inkscape:version="0.47 r22583"
   sodipodi:docname="nova-dl.svg"
   inkscape:export-filename="/home/schmaker/Obrázky/nova-dl.png"
   inkscape:export-xdpi="90"
   inkscape:export-ydpi="90">
  <defs
     id="defs3">
    <linearGradient
       id="linearGradient3985">
      <stop
         style="stop-color:#ffffff;stop-opacity:1;"
         offset="0"
         id="stop3987" />
      <stop
         style="stop-color:#ffffff;stop-opacity:0;"
         offset="1"
         id="stop3989" />
    </linearGradient>
    <inkscape:perspective
       sodipodi:type="inkscape:persp3d"
       inkscape:vp_x="0 : 526.18109 : 1"
       inkscape:vp_y="0 : 1000 : 0"
       inkscape:vp_z="744.09448 : 526.18109 : 1"
       inkscape:persp3d-origin="372.04724 : 350.78739 : 1"
       id="perspective9" />
    <inkscape:perspective
       id="perspective2823"
       inkscape:persp3d-origin="0.5 : 0.33333333 : 1"
       inkscape:vp_z="1 : 0.5 : 1"
       inkscape:vp_y="0 : 1000 : 0"
       inkscape:vp_x="0 : 0.5 : 1"
       sodipodi:type="inkscape:persp3d" />
    <radialGradient
       inkscape:collect="always"
       xlink:href="#linearGradient3985"
       id="radialGradient3991"
       cx="9.999999"
       cy="19.715416"
       fx="9.999999"
       fy="19.715416"
       r="10.15"
       gradientTransform="matrix(8.0154855,6.6138225e-7,-8.3440044e-7,8.9584836,-256.29768,1101.7838)"
       gradientUnits="userSpaceOnUse" />
    <radialGradient
       inkscape:collect="always"
       xlink:href="#linearGradient3985"
       id="radialGradient4009"
       cx="15.999999"
       cy="16.404762"
       fx="15.999999"
       fy="16.404762"
       r="8"
       gradientTransform="matrix(1,0,0,1.3125,0,-4.53125)"
       gradientUnits="userSpaceOnUse" />
    <filter
       inkscape:collect="always"
       id="filter4015">
      <feGaussianBlur
         inkscape:collect="always"
         stdDeviation="0.2775"
         id="feGaussianBlur4017" />
    </filter>
    <filter
       inkscape:collect="always"
       id="filter4027">
      <feGaussianBlur
         inkscape:collect="always"
         stdDeviation="0.87830425"
         id="feGaussianBlur4029" />
    </filter>
    <filter
       inkscape:collect="always"
       id="filter4031">
      <feGaussianBlur
         inkscape:collect="always"
         stdDeviation="0.87830425"
         id="feGaussianBlur4033" />
    </filter>
    <filter
       inkscape:collect="always"
       id="filter4035">
      <feGaussianBlur
         inkscape:collect="always"
         stdDeviation="0.49053585"
         id="feGaussianBlur4037" />
    </filter>
    <filter
       inkscape:collect="always"
       id="filter4045">
      <feGaussianBlur
         inkscape:collect="always"
         stdDeviation="0.77188518"
         id="feGaussianBlur4047" />
    </filter>
  </defs>
  <sodipodi:namedview
     id="base"
     pagecolor="#ffffff"
     bordercolor="#666666"
     borderopacity="1.0"
     inkscape:pageopacity="0.0"
     inkscape:pageshadow="2"
     inkscape:zoom="0.98994949"
     inkscape:cx="-347.52577"
     inkscape:cy="-181.81816"
     inkscape:document-units="px"
     inkscape:current-layer="g2833"
     showgrid="false"
     inkscape:window-width="1280"
     inkscape:window-height="713"
     inkscape:window-x="-4"
     inkscape:window-y="-3"
     inkscape:window-maximized="1">
    <inkscape:grid
       type="xygrid"
       id="grid3207"
       empspacing="5"
       visible="true"
       enabled="true"
       snapvisiblegridlinesonly="true" />
  </sodipodi:namedview>
  <metadata
     id="metadata6">
    <rdf:RDF>
      <cc:Work
         rdf:about="">
        <dc:format>image/svg+xml</dc:format>
        <dc:type
           rdf:resource="http://purl.org/dc/dcmitype/StillImage" />
        <dc:title></dc:title>
      </cc:Work>
    </rdf:RDF>
  </metadata>
  <g
     inkscape:label="Vrstva 1"
     inkscape:groupmode="layer"
     id="layer1"
     transform="translate(0,-1020.3622)">
    <g
       id="g2833"
       transform="matrix(0.20895514,0,0,0.20895514,47.805953,778.23309)">
      <path
         id="path3983"
         d="m -176.14285,1206.6184 0,52.6428 -23.92858,0 47.85716,47.8572 47.85718,-47.8572 -23.9286,0 0,-52.6428 -47.85716,0 z"
         style="fill:#0091ff;stroke:#00ffff;stroke-width:2.39285803000000019;stroke-linecap:butt;stroke-linejoin:miter;stroke-miterlimit:4;stroke-opacity:1;stroke-dasharray:none;filter:url(#filter4035);fill-opacity:1"
         sodipodi:nodetypes="cccccccc" />
      <path
         style="fill:none;stroke:url(#radialGradient3991);stroke-width:1.43571496;stroke-linecap:butt;stroke-linejoin:miter;stroke-miterlimit:4;stroke-opacity:1;stroke-dasharray:none"
         d="m -176.14285,1206.6184 0,52.6428 -23.92858,0 47.85716,47.8572 47.85718,-47.8572 -23.9286,0 0,-52.6428 -47.85716,0 z"
         id="path3209"
         sodipodi:nodetypes="cccccccc" />
      <g
         id="g4049"
         transform="translate(0,9.5714324)">
        <path
           sodipodi:nodetypes="ccccccccccccccccccccccscccsccccccsssccccccccccsssc"
           id="path4023"
           d="m -217.70357,1180.7561 0,-14.0838 12.08264,0.3338 c 15.30973,0.4228 14.91736,0 14.91736,16.0248 l 0,11.8089 -4,0 -4,0 0,-10.5 0,-10.5 -5,0 -5,0 0,10.5 0,10.5 -4.5,0 -4.5,0 0,-14.0837 z m 81.04217,3.3337 c -2.39759,-5.9125 -4.96895,-12.2125 -5.71414,-14 l -1.35487,-3.25 4.43579,0 4.43579,0 3.7598,9.7035 c 2.06789,5.3369 3.92672,9.2744 4.13075,8.75 0.20402,-0.5244 1.81963,-4.7785 3.59023,-9.4535 l 3.21929,-8.5 4.35911,-0.3139 c 3.85408,-0.2776 4.28103,-0.1038 3.68516,1.5 -0.37068,0.9976 -2.97871,7.3264 -5.79562,14.0639 l -5.12166,12.25 -4.63519,0 -4.63518,0 -4.35926,-10.75 z m 29.98606,9.6368 c -3.31507,-1.323 -3.99483,-2.6166 -4.01292,-7.6368 -0.0238,-6.6207 2.25806,-8.25 11.55424,-8.25 7.27792,0 7.55724,-0.087 7.25,-2.25 -0.30169,-2.1243 -0.77102,-2.2483 -8.39833,-2.2197 l -8.07877,0.03 0.62761,-3.0304 0.62761,-3.0303 10.28189,0 c 13.25479,0 13.12044,-0.1607 13.12044,15.6911 l 0,11.8089 -10.25,-0.063 c -5.6375,-0.035 -11.3623,-0.5073 -12.72177,-1.0498 z m 14.78819,-7.6368 c -0.28988,-2.5193 -0.71569,-2.7756 -5.07662,-3.0552 -3.58274,-0.2297 -4.90782,0.08 -5.35699,1.25 -1.24833,3.2531 0.36737,4.5552 5.65223,4.5552 4.97128,0 5.08995,-0.068 4.78138,-2.75 z"
           style="fill:#000000;filter:url(#filter4027)" />
        <path
           style="fill:#000080"
           d="m -219.21429,1179.8497 0,-14.0838 12.08264,0.3338 c 15.30973,0.4228 14.91736,0 14.91736,16.0248 l 0,11.8089 -4,0 -4,0 0,-10.5 0,-10.5 -5,0 -5,0 0,10.5 0,10.5 -4.5,0 -4.5,0 0,-14.0837 z m 81.04217,3.3337 c -2.39759,-5.9125 -4.96895,-12.2125 -5.71414,-14 l -1.35487,-3.25 4.43579,0 4.43579,0 3.7598,9.7035 c 2.06789,5.3369 3.92672,9.2744 4.13075,8.75 0.20402,-0.5244 1.81963,-4.7785 3.59023,-9.4535 l 3.21929,-8.5 4.35911,-0.3139 c 3.85408,-0.2776 4.28103,-0.1038 3.68516,1.5 -0.37068,0.9976 -2.97871,7.3264 -5.79562,14.0639 l -5.12166,12.25 -4.63519,0 -4.63518,0 -4.35926,-10.75 z m 29.98606,9.6368 c -3.31507,-1.323 -3.99483,-2.6166 -4.01292,-7.6368 -0.0238,-6.6207 2.25806,-8.25 11.55424,-8.25 7.27792,0 7.55724,-0.087 7.25,-2.25 -0.30169,-2.1243 -0.77102,-2.2483 -8.39833,-2.2197 l -8.07877,0.03 0.62761,-3.0304 0.62761,-3.0303 10.28189,0 c 13.25479,0 13.12044,-0.1607 13.12044,15.6911 l 0,11.8089 -10.25,-0.063 c -5.6375,-0.035 -11.3623,-0.5073 -12.72177,-1.0498 z m 14.78819,-7.6368 c -0.28988,-2.5193 -0.71569,-2.7756 -5.07662,-3.0552 -3.58274,-0.2297 -4.90782,0.08 -5.35699,1.25 -1.24833,3.2531 0.36737,4.5552 5.65223,4.5552 4.97128,0 5.08995,-0.068 4.78138,-2.75 z"
           id="path2829"
           sodipodi:nodetypes="ccccccccccccccccccccccscccsccccccsssccccccccccsssc" />
        <path
           style="fill:#000000;filter:url(#filter4031)"
           d="m -171.04758,1198.0898 c -1.93289,-2.6125 -6.02122,-7.2096 -9.08517,-10.2158 -4.06114,-3.9846 -5.57082,-6.2044 -5.57082,-8.191 0,-1.4989 0.3705,-2.9541 0.82333,-3.234 1.01093,-0.6248 14.59432,13.0773 19.62367,19.7951 2.80269,3.7436 3.36178,5.1009 2.36233,5.7347 -2.69017,1.7061 -4.73556,0.7305 -8.15334,-3.889 z m 12.35655,-3.4401 c -1.91811,-2.8261 -7.86617,-9.7247 -13.21792,-15.33 l -9.73044,-10.1916 2.28236,-2.1441 c 1.2553,-1.1793 2.55215,-2.1442 2.8819,-2.1442 1.24108,0 23.59868,25.1576 25.11446,28.2597 1.5146,3.0997 1.48728,3.3152 -0.62981,4.9681 -1.2172,0.9502 -2.43809,1.7261 -2.71309,1.7242 -0.275,0 -2.06936,-2.3159 -3.98746,-5.1421 z m -21.90895,0.6553 c -4.39808,-5.0091 -3.84967,-5.5996 0.89641,-0.9652 4.26843,4.168 4.4974,4.5 3.10359,4.5 -0.49302,0 -2.29302,-1.5907 -4,-3.5348 z m 31.86403,-9.2588 c -1.35719,-2.0034 -6.87378,-8.2296 -12.25909,-13.836 l -9.79147,-10.1933 3.15662,-0.6933 c 2.88122,-0.6328 3.67474,-0.1825 9.09525,5.1615 9.06103,8.933 13.83107,15.5333 13.83107,19.1381 0,4.4562 -1.21392,4.5836 -4.03238,0.423 z m -1.82057,-16.2704 c -5.37281,-5.958 -5.72484,-7.7515 -0.75401,-3.8415 2.07865,1.6351 7.58103,10.1264 6.37728,9.8415 -0.14867,-0.035 -2.67914,-2.7352 -5.62327,-6 z"
           id="path4025"
           sodipodi:nodetypes="cssssscccccssssccsscccccssccssc" />
        <path
           sodipodi:nodetypes="cssssscccccssssccsscccccssccssc"
           id="path2831"
           d="m -172.5583,1197.1834 c -1.93289,-2.6125 -6.02122,-7.2096 -9.08517,-10.2158 -4.06114,-3.9846 -5.57082,-6.2044 -5.57082,-8.191 0,-1.4989 0.3705,-2.9541 0.82333,-3.234 1.01093,-0.6248 14.59432,13.0773 19.62367,19.7951 2.80269,3.7436 3.36178,5.1009 2.36233,5.7347 -2.69017,1.7061 -4.73556,0.7305 -8.15334,-3.889 z m 12.35655,-3.4401 c -1.91811,-2.8261 -7.86617,-9.7247 -13.21792,-15.33 l -9.73044,-10.1916 2.28236,-2.1441 c 1.2553,-1.1793 2.55215,-2.1442 2.8819,-2.1442 1.24108,0 23.59868,25.1576 25.11446,28.2597 1.5146,3.0997 1.48728,3.3152 -0.62981,4.9681 -1.2172,0.9502 -2.43809,1.7261 -2.71309,1.7242 -0.275,0 -2.06936,-2.3159 -3.98746,-5.1421 z m -21.90895,0.6553 c -4.39808,-5.0091 -3.84967,-5.5996 0.89641,-0.9652 4.26843,4.168 4.4974,4.5 3.10359,4.5 -0.49302,0 -2.29302,-1.5907 -4,-3.5348 z m 31.86403,-9.2588 c -1.35719,-2.0034 -6.87378,-8.2296 -12.25909,-13.836 l -9.79147,-10.1933 3.15662,-0.6933 c 2.88122,-0.6328 3.67474,-0.1825 9.09525,5.1615 9.06103,8.933 13.83107,15.5333 13.83107,19.1381 0,4.4562 -1.21392,4.5836 -4.03238,0.423 z m -1.82057,-16.2704 c -5.37281,-5.958 -5.72484,-7.7515 -0.75401,-3.8415 2.07865,1.6351 7.58103,10.1264 6.37728,9.8415 -0.14867,-0.035 -2.67914,-2.7352 -5.62327,-6 z"
           style="fill:#ff0000" />
      </g>
      <path
         style="fill:url(#radialGradient4009);fill-opacity:1;stroke:none;filter:url(#filter4015)"
         d="m 10,6 0,11 -3,0 8,8 8,-8 -3,0 0,-11 -10,0 z"
         id="path3993"
         transform="matrix(4.7857162,0,0,4.7857162,-224.00001,1177.904)"
         sodipodi:nodetypes="cccccccc" />
      <path
         style="fill:#00ffff;filter:url(#filter4045)"
         d="m -162.2545,1009.1108 c -3.60987,-4.8791 -11.24521,-13.46463 -16.96744,-19.07906 -7.58457,-7.4416 -10.40404,-11.58733 -10.40404,-15.29743 0,-2.7994 0.69195,-5.51713 1.53765,-6.03993 1.888,-1.1668 27.2563,24.42329 36.6491,36.96942 5.2343,6.9915 6.27846,9.5264 4.41188,10.7102 -5.02415,3.1862 -8.84412,1.3642 -15.22715,-7.2632 z m 23.07706,-6.4247 c -3.58226,-5.27803 -14.69084,-18.16196 -24.68575,-28.63039 l -18.17254,-19.03376 4.26252,-4.00443 c 2.3444,-2.2024 4.76639,-4.0044 5.38223,-4.0044 2.31784,0 44.07282,46.98425 46.90368,52.77775 2.82867,5.78913 2.77764,6.19153 -1.17622,9.27853 -2.27324,1.7746 -4.55338,3.2236 -5.06696,3.22 -0.51359,0 -3.86473,-4.325 -7.44696,-9.6033 z m -40.91709,1.2239 c -8.21384,-9.35503 -7.18964,-10.45793 1.67412,-1.8027 7.97171,7.7841 8.39934,8.4043 5.79627,8.4043 -0.92077,0 -4.28244,-2.9708 -7.47039,-6.6016 z m 59.50915,-17.29186 c -2.53468,-3.7414 -12.83745,-15.36966 -22.89503,-25.84009 l -18.28652,-19.03706 5.8953,-1.2948 c 5.38095,-1.1818 6.86293,-0.3408 16.98626,9.63963 16.92234,16.68336 25.83085,29.01009 25.83085,35.74232 0,8.32243 -2.26711,8.56043 -7.53086,0.79 z m -3.40009,-30.38659 c -10.03424,-11.12723 -10.69169,-14.47676 -1.40819,-7.17443 3.88208,3.0537 14.15831,18.91206 11.91019,18.38006 -0.27765,-0.065 -5.00355,-5.1083 -10.502,-11.20563 z"
         id="path4039"
         sodipodi:nodetypes="cssssscccccssssccsscccccssccssc" />
      <path
         sodipodi:nodetypes="cssssscccccssssccsscccccssccssc"
         id="path3205"
         d="m -164.1346,1005.9488 c -3.60987,-4.8791 -11.24521,-13.46463 -16.96744,-19.07906 -7.58457,-7.44163 -10.40404,-11.58733 -10.40404,-15.29743 0,-2.79943 0.69195,-5.51713 1.53765,-6.03993 1.888,-1.1668 27.2563,24.42326 36.6491,36.96942 5.2343,6.9915 6.27846,9.5264 4.41188,10.7102 -5.02415,3.1862 -8.84412,1.3642 -15.22715,-7.2632 z m 23.07706,-6.42473 c -3.58226,-5.278 -14.69084,-18.16193 -24.68575,-28.63039 l -18.17254,-19.03376 4.26252,-4.0044 c 2.3444,-2.2024 4.76639,-4.0044 5.38223,-4.0044 2.31784,0 44.07282,46.98425 46.90368,52.77775 2.82867,5.78913 2.77764,6.19153 -1.17622,9.27853 -2.27324,1.7746 -4.55338,3.2236 -5.06696,3.22 -0.51359,0 -3.86473,-4.325 -7.44696,-9.60333 z m -40.91709,1.22393 c -8.21384,-9.35503 -7.18964,-10.45796 1.67412,-1.80273 7.97171,7.78413 8.39934,8.40433 5.79627,8.40433 -0.92077,0 -4.28244,-2.9708 -7.47039,-6.6016 z m 59.50915,-17.29186 c -2.53468,-3.74143 -12.83745,-15.36966 -22.89503,-25.84009 l -18.28652,-19.03706 5.8953,-1.2948 c 5.38095,-1.1818 6.86293,-0.3408 16.98626,9.63963 16.92234,16.68336 25.83085,29.01009 25.83085,35.74232 0,8.32243 -2.26711,8.56043 -7.53086,0.79 z m -3.40009,-30.38659 c -10.03424,-11.12726 -10.69169,-14.47676 -1.40819,-7.17443 3.88208,3.0537 14.15831,18.91206 11.91019,18.38006 -0.27765,-0.065 -5.00355,-5.10833 -10.502,-11.20563 z"
         style="fill:#ff0000" />
    </g>
  </g>
</svg>
